<svg width="56" height="56" viewBox="0 0 56 56" fill="none" xmlns="http://www.w3.org/2000/svg">
<path d="M52.0762 6.9707L23.1182 11.0635L23.248 13.542L52.0078 13.1641L52.0479 16.1641L23.4053 16.54L24.0098 28.0684L50.9238 29.0098C50.2164 37.876 44.2893 45.1869 36.2988 48.001L36.1416 52.5088L17.1533 51.8457L17.3105 47.3564C9.51117 44.0025 4.08755 36.2835 4 27.3721L10.2891 27.5908L10.8066 12.8057L10.291 12.8789L9.87109 9.9082L51.6553 4L52.0762 6.9707ZM18.5127 16.6045L18.709 27.8838L21 27.9639L20.4033 16.5791L18.5127 16.6045ZM13.6729 16.6689L13.2881 27.6953L15.707 27.7793L15.5127 16.6445L13.6729 16.6689ZM13.8232 12.3789L13.7783 13.667L15.46 13.6445L15.4336 12.1514L13.8232 12.3789ZM18.4277 11.7275L18.46 13.6055L20.2461 13.5811L20.1367 11.4854L18.4277 11.7275Z" fill="#FB3838"/>
</svg>
