<svg width="343" height="129" viewBox="0 0 343 129" fill="none" xmlns="http://www.w3.org/2000/svg">
<rect width="342.077" height="129" fill="white"/>
<path d="M76.5771 43.2163L47.6191 47.3091L47.749 49.7876L76.5088 49.4097L76.5488 52.4097L47.9062 52.7856L48.5107 64.314L75.4248 65.2554C74.7174 74.1216 68.7903 81.4325 60.7998 84.2466L60.6426 88.7544L41.6543 88.0913L41.8115 83.6021C34.0121 80.2481 28.5885 72.5291 28.501 63.6177L34.79 63.8364L35.3076 49.0513L34.792 49.1245L34.3721 46.1538L76.1562 40.2456L76.5771 43.2163ZM43.0137 52.8501L43.21 64.1294L45.501 64.2095L44.9043 52.8247L43.0137 52.8501ZM38.1738 52.9146L37.7891 63.9409L40.208 64.0249L40.0137 52.8901L38.1738 52.9146ZM38.3242 48.6245L38.2793 49.9126L39.9609 49.8901L39.9346 48.397L38.3242 48.6245ZM42.9287 47.9731L42.9609 49.8511L44.7471 49.8267L44.6377 47.731L42.9287 47.9731Z" fill="#FB3838"/>
<path d="M115.521 55.376H100.785V49.184H125.121V54.704L110.433 73.328V73.424H125.889V79.616H100.017V74.576L115.521 55.472V55.376ZM151.744 78.8C150.848 79.12 149.6 79.408 148 79.664C146.432 79.888 144.56 80 142.384 80C139.632 80 137.28 79.648 135.328 78.944C133.408 78.208 131.952 76.976 130.96 75.248C129.968 73.488 129.472 71.056 129.472 67.952C129.472 63.728 130.432 60.672 132.352 58.784C134.304 56.896 137.312 55.952 141.376 55.952C144.288 55.952 146.576 56.368 148.24 57.2C149.936 58.032 151.136 59.216 151.84 60.752C152.576 62.256 152.944 64.048 152.944 66.128C152.944 66.736 152.912 67.392 152.848 68.096C152.816 68.8 152.736 69.488 152.608 70.16L152.416 70.352H136.624C136.848 71.76 137.504 72.688 138.592 73.136C139.712 73.584 141.52 73.808 144.016 73.808C145.68 73.808 147.056 73.776 148.144 73.712C149.264 73.616 150.4 73.488 151.552 73.328L151.744 73.472V78.8ZM146.272 65.312C146.272 64.544 146.144 63.888 145.888 63.344C145.664 62.768 145.2 62.336 144.496 62.048C143.792 61.728 142.752 61.568 141.376 61.568C139.36 61.568 138.032 61.92 137.392 62.624C136.784 63.296 136.48 64.192 136.48 65.312H146.272ZM156.931 72.944C159.427 73.648 162.195 74 165.235 74C166.707 74 167.811 73.952 168.547 73.856C169.283 73.76 169.779 73.6 170.035 73.376C170.291 73.152 170.419 72.848 170.419 72.464C170.419 71.92 170.211 71.584 169.795 71.456C169.411 71.328 168.627 71.152 167.443 70.928L163.651 70.208C161.219 69.728 159.459 68.976 158.371 67.952C157.315 66.896 156.787 65.328 156.787 63.248C156.787 60.432 157.619 58.512 159.283 57.488C160.979 56.464 163.667 55.952 167.347 55.952C169.555 55.952 171.491 56.08 173.155 56.336C174.851 56.56 176.259 56.848 177.379 57.2L177.283 63.008L177.139 63.152C174.547 62.32 171.715 61.904 168.643 61.904C167.139 61.904 166.083 62.016 165.475 62.24C164.899 62.432 164.611 62.832 164.611 63.44C164.611 63.76 164.691 64.016 164.851 64.208C165.043 64.4 165.459 64.592 166.099 64.784C166.739 64.944 167.747 65.152 169.123 65.408L172.627 66.08C174.579 66.496 176.019 67.184 176.947 68.144C177.875 69.104 178.339 70.624 178.339 72.704C178.339 74.528 178.003 75.984 177.331 77.072C176.659 78.128 175.523 78.88 173.923 79.328C172.355 79.776 170.179 80 167.395 80C165.283 80 163.331 79.904 161.539 79.712C159.779 79.488 158.195 79.232 156.787 78.944V73.04L156.931 72.944ZM183.848 72.56V62.48H180.968V56.24H184.568L186.008 50.528H191.528V56.24H196.76V62.48H191.528V70.88C191.528 71.776 191.64 72.4 191.864 72.752C192.088 73.072 192.6 73.232 193.4 73.232C193.912 73.232 194.456 73.216 195.032 73.184C195.608 73.12 196.184 73.056 196.76 72.992L196.904 73.088V79.328C195.368 79.776 193.336 80 190.808 80C188.28 80 186.488 79.424 185.432 78.272C184.376 77.12 183.848 75.216 183.848 72.56ZM204.876 88.4L208.572 79.616L199.308 56.288V56.192H207.9C208.796 58.72 209.628 61.264 210.396 63.824C211.196 66.384 211.836 69.008 212.316 71.696H212.412C212.892 69.04 213.5 66.432 214.236 63.872C215.004 61.312 215.868 58.752 216.828 56.192H225.084V56.336L212.748 88.496H204.876V88.4Z" fill="#1F2937"/>
<path d="M233.009 82.496C232.433 82.496 231.953 82.224 231.569 81.68C231.217 81.136 230.945 80.528 230.753 79.856C230.593 79.184 230.513 78.672 230.513 78.32C230.513 77.776 230.641 77.056 230.897 76.16C231.185 75.264 231.521 74.336 231.905 73.376C232.289 72.384 232.673 71.456 233.057 70.592C233.473 69.696 233.825 68.992 234.113 68.48C233.441 68 232.897 67.504 232.481 66.992C232.065 66.448 231.857 65.776 231.857 64.976C231.857 64.368 232.033 63.888 232.385 63.536C232.737 63.184 233.265 63.008 233.969 63.008C234.449 63.008 234.929 63.088 235.409 63.248C235.889 63.376 236.337 63.552 236.753 63.776C237.777 62.208 238.945 60.544 240.257 58.784C241.601 56.992 242.913 55.408 244.193 54.032C244.353 53.872 244.545 53.696 244.769 53.504C245.025 53.312 245.297 53.216 245.585 53.216C245.873 53.216 246.017 53.376 246.017 53.696C246.017 53.92 245.953 54.128 245.825 54.32C245.697 54.512 245.569 54.688 245.441 54.848C245.025 55.36 244.609 55.856 244.193 56.336C243.777 56.816 243.361 57.312 242.945 57.824C242.049 58.944 241.185 60.096 240.353 61.28C239.553 62.464 238.785 63.664 238.049 64.88C238.753 65.52 239.425 66.192 240.065 66.896C240.737 67.568 241.393 68.256 242.033 68.96H243.473C245.457 68.96 247.553 68.816 249.761 68.528C251.969 68.24 254.113 67.76 256.193 67.088C258.305 66.384 260.161 65.44 261.761 64.256C263.393 63.072 264.593 61.568 265.361 59.744C265.777 58.688 265.985 57.68 265.985 56.72C265.985 55.152 265.537 53.84 264.641 52.784C263.745 51.728 262.577 50.896 261.137 50.288C259.697 49.648 258.161 49.2 256.529 48.944C254.897 48.656 253.345 48.512 251.873 48.512H251.009C249.249 48.512 247.345 48.624 245.297 48.848C243.281 49.04 241.265 49.392 239.249 49.904C237.233 50.384 235.361 51.072 233.633 51.968C231.905 52.832 230.481 53.936 229.361 55.28C228.849 55.856 228.433 56.496 228.113 57.2C227.793 57.904 227.633 58.624 227.633 59.36C227.633 59.584 227.665 59.808 227.729 60.032C227.825 60.256 227.873 60.48 227.873 60.704C227.873 60.896 227.793 61.056 227.633 61.184C227.473 61.312 227.281 61.376 227.057 61.376C226.577 61.376 226.289 61.152 226.193 60.704C226.097 60.224 226.049 59.856 226.049 59.6C226.049 58.768 226.209 57.952 226.529 57.152C226.881 56.352 227.313 55.616 227.825 54.944C229.009 53.376 230.497 52.096 232.289 51.104C234.113 50.08 236.097 49.28 238.241 48.704C240.385 48.128 242.561 47.728 244.769 47.504C246.977 47.28 249.057 47.168 251.009 47.168H251.825C253.521 47.168 255.281 47.328 257.105 47.648C258.961 47.968 260.673 48.496 262.241 49.232C263.841 49.968 265.121 50.96 266.081 52.208C267.073 53.424 267.569 54.928 267.569 56.72C267.569 57.904 267.329 59.056 266.849 60.176C265.985 62.128 264.689 63.76 262.961 65.072C261.233 66.384 259.249 67.424 257.009 68.192C254.801 68.96 252.497 69.52 250.097 69.872C247.729 70.192 245.457 70.368 243.281 70.4C243.633 70.752 243.969 71.12 244.289 71.504C244.641 71.856 244.977 72.224 245.297 72.608C245.681 73.056 246.241 73.696 246.977 74.528C247.745 75.36 248.577 76.208 249.473 77.072C250.401 77.904 251.313 78.624 252.209 79.232C253.137 79.808 253.969 80.096 254.705 80.096C255.441 80.096 256.017 79.936 256.433 79.616C256.881 79.296 257.265 79.136 257.585 79.136C258.097 79.136 258.353 79.376 258.353 79.856C258.353 80.144 258.097 80.416 257.585 80.672C257.105 80.928 256.561 81.12 255.953 81.248C255.377 81.408 254.945 81.488 254.657 81.488C253.889 81.488 253.105 81.312 252.305 80.96C251.697 80.704 251.009 80.256 250.241 79.616C249.473 78.976 248.689 78.256 247.889 77.456C247.121 76.656 246.385 75.888 245.681 75.152C245.009 74.416 244.465 73.824 244.049 73.376L241.265 70.352C240.433 70.288 239.729 70.24 239.153 70.208C238.609 70.176 238.065 70.096 237.521 69.968C237.009 69.84 236.353 69.616 235.553 69.296C235.297 69.808 234.961 70.48 234.545 71.312C234.161 72.144 233.777 73.024 233.393 73.952C233.009 74.88 232.689 75.76 232.433 76.592C232.177 77.424 232.049 78.096 232.049 78.608C232.049 79.504 232.193 80.112 232.481 80.432C232.801 80.784 233.105 81.008 233.393 81.104C233.681 81.232 233.825 81.44 233.825 81.728C233.825 81.92 233.745 82.096 233.585 82.256C233.457 82.416 233.265 82.496 233.009 82.496ZM234.881 67.232C235.137 66.784 235.361 66.352 235.553 65.936C235.777 65.52 236.017 65.104 236.273 64.688C235.729 64.24 235.137 64.016 234.497 64.016C233.793 64.016 233.441 64.304 233.441 64.88C233.441 65.328 233.601 65.76 233.921 66.176C234.241 66.56 234.561 66.912 234.881 67.232ZM240.065 68.864C239.617 68.384 239.169 67.904 238.721 67.424C238.305 66.912 237.873 66.4 237.425 65.888C237.201 66.24 236.993 66.608 236.801 66.992C236.609 67.376 236.417 67.744 236.225 68.096C236.897 68.416 237.521 68.608 238.097 68.672C238.673 68.736 239.329 68.8 240.065 68.864ZM274.127 81.056C273.583 81.056 273.087 80.896 272.639 80.576C272.191 80.256 271.967 79.696 271.967 78.896C271.967 77.872 272.223 76.784 272.735 75.632C273.279 74.48 273.951 73.216 274.751 71.84C273.727 73.024 272.575 74.304 271.295 75.68C270.047 77.056 268.799 78.16 267.551 78.992C266.463 79.696 265.567 80.048 264.863 80.048C264.287 80.048 263.855 79.856 263.567 79.472C263.247 79.088 263.087 78.592 263.087 77.984C263.087 77.28 263.247 76.592 263.567 75.92C264.271 74.256 265.071 72.448 265.967 70.496C266.863 68.512 267.807 66.768 268.799 65.264C268.895 65.136 268.991 65.04 269.087 64.976C269.215 64.88 269.359 64.832 269.519 64.832C269.743 64.832 269.935 64.896 270.095 65.024C270.287 65.152 270.383 65.312 270.383 65.504C270.383 65.568 270.351 65.664 270.287 65.792C270.095 66.24 269.743 66.96 269.231 67.952C268.751 68.912 268.191 70.016 267.551 71.264C266.911 72.512 266.255 73.792 265.583 75.104C265.071 76.096 264.815 76.96 264.815 77.696C264.815 78.272 265.023 78.56 265.439 78.56C265.631 78.56 265.839 78.496 266.063 78.368C267.023 77.824 267.871 77.184 268.607 76.448C269.343 75.712 270.063 74.96 270.767 74.192C271.215 73.712 271.647 73.232 272.063 72.752C272.511 72.272 272.943 71.776 273.359 71.264C273.519 71.104 273.823 70.72 274.271 70.112C274.751 69.504 275.279 68.832 275.855 68.096C276.431 67.328 276.943 66.656 277.391 66.08C277.871 65.472 278.159 65.104 278.255 64.976C278.511 64.72 278.895 64.592 279.407 64.592C279.663 64.592 279.887 64.656 280.079 64.784C280.303 64.88 280.415 65.056 280.415 65.312C280.415 65.536 280.255 65.92 279.935 66.464C279.647 66.976 279.295 67.552 278.879 68.192C278.463 68.8 278.063 69.36 277.679 69.872C277.295 70.384 277.023 70.768 276.863 71.024C276.735 71.248 276.495 71.68 276.143 72.32C275.791 72.928 275.407 73.648 274.991 74.48C274.607 75.28 274.271 76.064 273.983 76.832C273.695 77.6 273.551 78.24 273.551 78.752C273.551 79.328 273.791 79.616 274.271 79.616C274.783 79.616 275.375 79.296 276.047 78.656C276.719 78.016 277.423 77.232 278.159 76.304C278.895 75.344 279.583 74.4 280.223 73.472C280.863 72.512 281.407 71.712 281.855 71.072C281.983 70.912 282.111 70.816 282.239 70.784C282.367 70.752 282.463 70.736 282.527 70.736C282.847 70.736 283.039 70.928 283.103 71.312C283.103 71.408 282.991 71.68 282.767 72.128C282.543 72.576 282.319 72.944 282.095 73.232C281.807 73.648 281.359 74.288 280.751 75.152C280.175 75.984 279.503 76.88 278.735 77.84C277.999 78.768 277.183 79.6 276.287 80.336C275.711 80.816 274.991 81.056 274.127 81.056ZM283.867 80.48C282.299 80.48 281.099 80.16 280.267 79.52C279.435 78.88 279.019 78.208 279.019 77.504C279.019 76.992 279.243 76.544 279.691 76.16C280.107 75.744 280.827 75.536 281.851 75.536C282.491 75.536 283.259 75.632 284.155 75.824C284.827 75.984 285.531 76.192 286.267 76.448C287.035 76.704 287.819 76.816 288.619 76.784C288.843 76.432 288.971 76.144 289.003 75.92C289.035 75.696 289.051 75.424 289.051 75.104C289.051 74.048 288.875 73.168 288.523 72.464C288.203 71.76 287.819 71.072 287.371 70.4C286.955 69.728 286.603 68.912 286.315 67.952C285.899 68.656 285.371 69.584 284.731 70.736C284.091 71.856 283.035 73.392 281.563 75.344C281.467 75.504 281.275 75.584 280.987 75.584C280.507 75.584 280.267 75.376 280.267 74.96C280.267 74.864 280.347 74.72 280.507 74.528C280.635 74.336 280.955 73.84 281.467 73.04C282.043 72.112 282.715 71.072 283.483 69.92C284.251 68.736 284.987 67.44 285.691 66.032C285.723 65.488 285.835 64.96 286.027 64.448C286.219 63.936 286.443 63.472 286.699 63.056C287.051 62.48 287.419 62.064 287.803 61.808C288.187 61.52 288.539 61.376 288.859 61.376C289.467 61.376 289.771 61.728 289.771 62.432C289.771 62.912 289.579 63.536 289.195 64.304C288.971 64.784 288.683 65.2 288.331 65.552C287.979 65.872 287.675 66.16 287.419 66.416C287.483 67.216 287.675 67.936 287.995 68.576C288.315 69.216 288.667 69.84 289.051 70.448C289.467 71.056 289.819 71.712 290.107 72.416C290.395 73.12 290.539 73.968 290.539 74.96C290.539 75.6 290.427 76.192 290.203 76.736C290.907 76.768 291.627 76.512 292.363 75.968C293.131 75.392 293.851 74.656 294.523 73.76C295.227 72.864 295.851 71.952 296.395 71.024C296.555 70.8 296.763 70.688 297.019 70.688C297.179 70.688 297.339 70.736 297.499 70.832C297.659 70.928 297.739 71.088 297.739 71.312C297.739 71.44 297.691 71.6 297.595 71.792C296.667 73.456 295.771 74.752 294.907 75.68C294.075 76.576 293.227 77.2 292.363 77.552C291.499 77.904 290.539 78.112 289.483 78.176C288.683 78.912 287.819 79.488 286.891 79.904C285.995 80.288 284.987 80.48 283.867 80.48ZM283.627 79.328C284.363 79.328 285.003 79.216 285.547 78.992C286.091 78.768 286.683 78.448 287.323 78.032C286.651 77.936 286.091 77.824 285.643 77.696C285.195 77.536 284.619 77.376 283.915 77.216C283.019 77.024 282.315 76.928 281.803 76.928C280.875 76.928 280.411 77.152 280.411 77.6C280.411 77.952 280.715 78.336 281.323 78.752C281.931 79.136 282.699 79.328 283.627 79.328ZM307.253 80.336C306.453 80.336 305.749 80.112 305.141 79.664C304.565 79.216 304.277 78.544 304.277 77.648C304.277 76.4 304.613 75.088 305.285 73.712C305.957 72.336 306.773 71.008 307.733 69.728C308.693 68.416 309.589 67.264 310.421 66.272C310.933 65.728 311.189 65.264 311.189 64.88C311.189 64.592 311.045 64.432 310.757 64.4C310.661 64.368 310.533 64.352 310.373 64.352C309.669 64.352 308.965 64.608 308.261 65.12C307.557 65.632 306.981 66.064 306.533 66.416C305.061 67.568 303.637 68.912 302.261 70.448C300.885 71.984 299.749 73.392 298.853 74.672C298.533 75.152 298.261 75.744 298.037 76.448C297.813 77.12 297.605 77.76 297.413 78.368C297.253 78.976 297.061 79.408 296.837 79.664C296.517 80.048 296.165 80.24 295.781 80.24C295.493 80.24 295.253 80.144 295.061 79.952C294.869 79.728 294.773 79.456 294.773 79.136C294.773 78.944 294.789 78.8 294.821 78.704C295.205 77.2 295.701 75.552 296.309 73.76C296.949 71.936 297.621 70.144 298.325 68.384C299.061 66.592 299.765 64.992 300.437 63.584C300.917 62.56 301.477 61.408 302.117 60.128C302.789 58.816 303.541 57.52 304.373 56.24C305.237 54.928 306.181 53.76 307.205 52.736C308.261 51.712 309.413 50.96 310.661 50.48C311.141 50.288 311.621 50.192 312.101 50.192C312.741 50.192 313.285 50.352 313.733 50.672C314.213 50.992 314.453 51.52 314.453 52.256C314.453 52.96 314.197 53.776 313.685 54.704C313.173 55.6 312.533 56.512 311.765 57.44C310.997 58.368 310.213 59.232 309.413 60.032C308.613 60.832 307.909 61.488 307.301 62C305.893 63.152 304.549 64.224 303.269 65.216C302.021 66.208 300.965 67.232 300.101 68.288C299.525 69.888 299.125 71.216 298.901 72.272C299.797 71.056 300.885 69.824 302.165 68.576C303.445 67.296 304.645 66.224 305.765 65.36C306.373 64.88 307.125 64.352 308.021 63.776C308.917 63.2 309.813 62.912 310.709 62.912C311.349 62.912 311.861 63.072 312.245 63.392C312.629 63.712 312.821 64.144 312.821 64.688C312.821 65.424 312.453 66.224 311.717 67.088C310.981 67.952 310.165 69.008 309.269 70.256C308.405 71.504 307.653 72.768 307.013 74.048C306.405 75.328 306.101 76.496 306.101 77.552C306.101 78.064 306.245 78.432 306.533 78.656C306.821 78.88 307.157 78.992 307.541 78.992C308.117 78.992 308.645 78.8 309.125 78.416C309.925 77.808 310.661 77.088 311.333 76.256C312.037 75.424 312.677 74.592 313.253 73.76C313.829 72.928 314.325 72.208 314.741 71.6C315.061 71.088 315.429 70.832 315.845 70.832C316.165 70.832 316.325 71.008 316.325 71.36C316.325 71.456 316.309 71.568 316.277 71.696C316.245 71.824 316.181 71.968 316.085 72.128C315.637 72.928 315.045 73.808 314.309 74.768C313.605 75.728 312.885 76.64 312.149 77.504C311.413 78.336 310.741 78.96 310.133 79.376C309.301 80.016 308.341 80.336 307.253 80.336ZM311.285 51.584C310.293 51.968 309.317 52.64 308.357 53.6C307.429 54.56 306.517 55.712 305.621 57.056C304.757 58.4 303.941 59.824 303.173 61.328C302.405 62.8 301.717 64.256 301.109 65.696C302.165 64.736 303.109 63.92 303.941 63.248C304.805 62.576 305.653 61.872 306.485 61.136C307.221 60.496 308.005 59.712 308.837 58.784C309.701 57.824 310.485 56.832 311.189 55.808C311.925 54.784 312.437 53.84 312.725 52.976C312.789 52.816 312.837 52.672 312.869 52.544C312.901 52.384 312.917 52.256 312.917 52.16C312.917 51.648 312.661 51.392 312.149 51.392C312.021 51.392 311.877 51.408 311.717 51.44C311.589 51.472 311.445 51.52 311.285 51.584Z" fill="#FB3838"/>
</svg>
