<svg width="39" height="39" viewBox="0 0 39 39" fill="none" xmlns="http://www.w3.org/2000/svg">
<path d="M33.7256 11.5833C33.452 11.1093 33.0603 10.7142 32.5885 10.4367C32.1168 10.1593 31.5812 10.0088 31.034 9.99995H10.7673L9.84896 6.42162C9.75617 6.0762 9.54917 5.77236 9.26166 5.55961C8.97416 5.34685 8.62308 5.23771 8.26563 5.24995H5.09896C4.67903 5.24995 4.27631 5.41677 3.97937 5.7137C3.68244 6.01063 3.51563 6.41336 3.51562 6.83329C3.51563 7.25321 3.68244 7.65594 3.97937 7.95287C4.27631 8.2498 4.67903 8.41662 5.09896 8.41662H7.06229L11.4323 24.6616C11.5251 25.007 11.7321 25.3109 12.0196 25.5236C12.3071 25.7364 12.6582 25.8455 13.0156 25.8333H27.2656C27.558 25.8324 27.8444 25.7506 28.0932 25.5969C28.3419 25.4431 28.5432 25.2236 28.6748 24.9625L33.8681 14.5758C34.0932 14.104 34.198 13.5838 34.1731 13.0616C34.1483 12.5395 33.9945 12.0316 33.7256 11.5833ZM26.284 22.6666H14.219L11.6381 13.1666H31.034L26.284 22.6666Z" fill="white"/>
<path d="M12.2241 33.75C13.5358 33.75 14.5991 32.6867 14.5991 31.375C14.5991 30.0633 13.5358 29 12.2241 29C10.9124 29 9.84912 30.0633 9.84912 31.375C9.84912 32.6867 10.9124 33.75 12.2241 33.75Z" fill="white"/>
<path d="M28.0576 33.75C29.3693 33.75 30.4326 32.6867 30.4326 31.375C30.4326 30.0633 29.3693 29 28.0576 29C26.7459 29 25.6826 30.0633 25.6826 31.375C25.6826 32.6867 26.7459 33.75 28.0576 33.75Z" fill="white"/>
</svg>
